<svg width="172" height="263" viewBox="0 0 172 263" fill="none" xmlns="http://www.w3.org/2000/svg">
<path d="M100.722 0.110352C65.6931 0.110352 48.075 11.8066 39.2344 23.6064C34.8229 29.4948 32.6169 35.384 31.5137 39.8018C30.962 42.0107 30.6854 43.8536 30.5469 45.1475C30.4776 45.7945 30.4423 46.3052 30.4248 46.6553C30.4161 46.8301 30.4124 46.9654 30.4102 47.0576C30.409 47.1035 30.4085 47.1387 30.4082 47.1631C30.4081 47.1752 30.4073 47.1848 30.4072 47.1914V47.2021C30.4095 47.2028 30.4424 47.2031 30.9072 47.2031H30.4072V99.875L0.604492 151.321L0.169922 152.072H30.4072V196.181H100.222V262.653H171.035V47.2031H170.535C171.005 47.2031 171.033 47.2028 171.035 47.2021V47.1631C171.035 47.1387 171.034 47.1035 171.033 47.0576C171.031 46.9654 171.026 46.8301 171.018 46.6553C171 46.3052 170.965 45.7945 170.896 45.1475C170.757 43.8537 170.481 42.0107 169.93 39.8018C168.826 35.384 166.621 29.4948 162.209 23.6064C153.369 11.8066 135.75 0.110468 100.722 0.110352ZM93.8643 91.9316L71.4248 103.114L48.9844 91.9316L71.4248 80.75L93.8643 91.9316Z" fill="#9B1C31"/>
</svg>
