<svg width="763" height="943" viewBox="0 0 763 943" fill="none" xmlns="http://www.w3.org/2000/svg">
<g clip-path="url(#clip0_519_29)">
<path d="M194.606 184.763C200.258 179.471 213.45 170.044 231.386 169.749C250.055 169.444 264.039 179.188 270.042 184.763C291.69 204.884 293.067 248.486 270.042 290.692H342.804C337.742 274.041 325.053 224.388 348.145 171.364C354.514 156.732 376.332 106.637 402.867 107.887C443.431 109.796 444.77 229.348 524.142 274.221C533.014 279.235 555.253 291.45 584.888 290.692C609.259 290.064 627.086 280.937 638.063 275.181C657.979 264.733 673.165 251.28 684.399 238.721V290.692H742.653V29.2153C742.768 20.1697 742.719 12.679 742.653 7.54518H681.688C696.115 115.907 670.137 200.792 618.454 221.808C592.301 232.441 566.427 223.968 565.306 223.586C482.332 195.162 500.974 27.655 421.919 5.05191C419.125 4.25538 404.392 0.256332 387.364 5.03009C327.481 21.8119 315.569 125.662 314.765 133.463C311.403 126.796 303.974 114.281 289.618 104.073C270.031 90.1448 250.071 89.2665 243.331 89.2665C234.655 89.2665 218.862 90.494 200.608 99.4796V7.54518H122.341V290.692H194.6C171.957 248.323 173.111 204.89 194.6 184.763H194.606Z" fill="white" stroke="white" stroke-width="10" stroke-miterlimit="10"/>
<path d="M666.381 701.775C698.831 701.541 725.651 706.991 744.271 712.185C744.194 694.71 744.123 677.241 744.047 659.766C704.44 653.918 670.984 651.981 646.312 651.402C646.312 651.402 632.87 651.092 613.698 652.041C592.295 652.521 567.853 655.107 542.198 661.31C542.067 661.343 541.93 661.37 541.799 661.403C541.788 661.403 541.777 661.408 541.761 661.414C510.578 668.997 466.117 679.816 425.74 715.022C355.421 776.322 362.949 854.497 299.759 871.372C293.663 872.998 278.657 876.909 262.246 872.288C211.624 858.016 181.032 769.704 183.377 655.331H122.412C122.346 660.464 122.297 667.955 122.412 677.001C122.412 677.001 122.63 693.892 123.445 709.07C128.644 806.029 157.306 854.197 157.306 854.197C161.291 860.897 168.77 873.205 180.665 886.501C191.905 899.065 207.086 912.513 227.002 922.961C237.973 928.717 255.8 937.844 280.177 938.472C310.041 939.241 332.504 926.846 340.923 922.001C415.43 879.119 407.158 788.107 463.121 771.352C474.919 767.822 494.911 766.016 525.344 782.127C525.41 782.16 525.475 782.193 525.541 782.231C525.612 782.269 525.677 782.302 525.749 782.34C581.892 811.566 659.394 833.705 655.234 859.462C652.894 873.941 625.774 883.173 607.657 884.7C575.458 887.406 541.701 868.278 521.435 835.637C500.738 853.515 480.041 871.394 459.338 889.272C533.429 942.678 624.582 954.708 685.542 922.683C691.681 919.459 748.098 888.983 744.047 850.171C736.978 782.444 553.071 759.12 559.757 727.472C563.759 708.513 632.88 702.021 666.381 701.781V701.775Z" fill="white" stroke="white" stroke-width="10" stroke-miterlimit="10"/>
<path d="M387.462 511.305C294.101 438.286 225.449 433.234 229.822 411.607C234.896 386.527 328.743 385.971 336.446 385.916C368.897 385.681 395.716 391.132 414.336 396.326C414.26 378.851 414.189 361.382 414.112 343.907C374.112 337.142 340.53 335.582 316.378 335.543C266.931 335.467 237.093 341.725 221.907 345.484C168.912 358.605 154.879 376.129 148.39 385.911C144.465 391.825 139.878 398.683 139.698 408.306C138.5 471.871 331.816 503.312 325.305 543.597C322.965 558.077 295.844 567.308 277.728 568.836C245.528 571.542 211.771 552.414 191.506 519.772C170.809 537.651 150.112 555.529 129.409 573.408C145.777 585.836 171.831 602.617 207.108 613.813C218.473 617.419 248.306 626.001 291.405 625.701C369.897 625.155 375.905 595.967 458.929 590.904C489.176 590.904 529.838 591.651 572.249 607.146C574.539 607.98 574.616 608.051 576.458 608.701C582.455 610.806 603.185 617.643 633.433 616.961C655.693 616.459 679.2 615.929 702.046 603.763C744.435 581.193 756.845 533.346 759.573 521.485H690.724C689.74 523.1 666.572 559.877 629.448 559.152C588.463 558.344 563.311 512.331 572.386 492.712C578.415 479.684 599.304 470.136 692.206 482.15C736.246 487.845 769.489 446.071 750.574 408.841C746.589 400.996 741.439 393.123 734.83 385.474C697.476 342.243 642.65 339.859 629.448 339.701C620.597 339.597 556.204 339.755 519.85 385.998C501.443 409.414 495.993 437.304 495.31 441.003C488.979 475.237 501.033 492.526 487.181 514.66C486.202 516.221 474.175 534.857 453.445 539.178C426.844 544.721 402.566 523.117 387.467 511.31L387.462 511.305ZM625.588 394.52C658.716 391.803 689.505 417.199 689.669 450.103C679.233 445.689 657.585 438.089 629.327 439.508C602.234 440.866 582.264 449.857 572.375 455.111C569.357 424.15 594.225 397.095 625.582 394.525L625.588 394.52Z" fill="white" stroke="white" stroke-width="10" stroke-miterlimit="10"/>
<path d="M53.9131 4.78467H32.7021C16.1509 4.78467 2.7334 18.1751 2.7334 34.6929C2.7334 51.2108 16.1509 64.6012 32.7021 64.6012H53.9131C70.4644 64.6012 83.8819 51.2108 83.8819 34.6929C83.8819 18.1751 70.4644 4.78467 53.9131 4.78467Z" fill="white" stroke="white" stroke-width="10" stroke-miterlimit="10"/>
</g>
<defs>
<clipPath id="clip0_519_29">
<rect width="763" height="943" fill="white"/>
</clipPath>
</defs>
</svg>
