<svg width="200" height="197" viewBox="0 0 200 197" fill="none" xmlns="http://www.w3.org/2000/svg">
<path d="M95.1007 4.0416C96.188 -1.29387 103.812 -1.29388 104.899 4.04158L114.179 49.5802C114.925 53.2371 119.268 54.8182 122.19 52.4958L158.571 23.5763C162.833 20.188 168.673 25.0887 166.077 29.8748L143.914 70.7244C142.134 74.0049 144.446 78.0082 148.176 78.1071L194.635 79.3385C200.078 79.4827 201.402 86.991 196.336 88.9882L153.101 106.035C149.629 107.404 148.826 111.956 151.621 114.43L186.418 145.236C190.495 148.846 186.683 155.448 181.519 153.722L137.441 138.99C133.902 137.807 130.36 140.778 130.911 144.469L137.766 190.435C138.569 195.821 131.404 198.429 128.558 193.787L104.262 154.168C102.311 150.987 97.6887 150.987 95.7376 154.168L71.4421 193.787C68.5956 198.429 61.4313 195.821 62.2344 190.435L69.0891 144.469C69.6396 140.778 66.0984 137.807 62.5588 138.99L18.4812 153.722C13.3169 155.448 9.5049 148.846 13.5819 145.236L48.3794 114.43C51.1738 111.956 50.3711 107.404 46.8991 106.035L3.66386 88.9882C-1.40174 86.991 -0.0778461 79.4827 5.36536 79.3385L51.8236 78.1071C55.5544 78.0082 57.8657 74.0049 56.0859 70.7244L33.9233 29.8748C31.3266 25.0887 37.1669 20.188 41.4294 23.5763L77.81 52.4958C80.7315 54.8182 85.0754 53.2371 85.8206 49.5802L95.1007 4.0416Z" fill="#9B1C31"/>
</svg>
