<svg width="174" height="171" viewBox="0 0 174 171" fill="none" xmlns="http://www.w3.org/2000/svg">
<path d="M83.5703 4.34082C84.3316 0.606305 89.6684 0.606324 90.4297 4.34082L98.0117 41.5459C98.9806 46.2998 104.627 48.3549 108.425 45.3359L138.147 21.709C141.131 19.3372 145.22 22.7679 143.402 26.1182L125.295 59.4922C122.982 63.7565 125.986 68.96 130.836 69.0889L168.792 70.0957C172.602 70.1967 173.529 75.4525 169.983 76.8506L134.66 90.7773C130.147 92.5571 129.104 98.4755 132.736 101.691L161.165 126.859C164.019 129.386 161.351 134.008 157.736 132.8L121.725 120.763C117.123 119.225 112.52 123.088 113.235 127.887L118.836 165.44C119.398 169.21 114.383 171.035 112.391 167.786L92.541 135.419C90.0047 131.283 83.9953 131.283 81.459 135.419L61.6094 167.786C59.6168 171.035 54.6019 169.21 55.1641 165.44L60.7646 127.887C61.4802 123.088 56.8768 119.225 52.2754 120.763L16.2637 132.8C12.6489 134.008 9.98118 129.386 12.835 126.859L41.2637 101.691C44.8963 98.4755 43.8531 92.5571 39.3398 90.7773L4.0166 76.8506C0.470672 75.4525 1.39777 70.1967 5.20801 70.0957L43.1641 69.0889C48.0137 68.96 51.0183 63.7565 48.7051 59.4922L30.5977 26.1182C28.78 22.7679 32.8688 19.3372 35.8525 21.709L65.5752 45.3359C69.3731 48.3549 75.0194 46.2998 75.9883 41.5459L83.5703 4.34082Z" stroke="#FCFAFB" stroke-width="3"/>
</svg>
