<svg width="200" height="197" viewBox="0 0 200 197" fill="none" xmlns="http://www.w3.org/2000/svg">
<path d="M96.5703 4.34082C97.3316 0.606315 102.668 0.606333 103.43 4.34082L112.71 49.8799C113.679 54.6337 119.325 56.6887 123.123 53.6699L159.504 24.751C162.488 22.3792 166.575 25.8089 164.758 29.1592L142.596 70.0088C140.282 74.2733 143.287 79.4779 148.137 79.6064L194.595 80.8379C198.405 80.9389 199.332 86.1946 195.786 87.5928L152.551 104.64C148.037 106.419 146.993 112.338 150.626 115.554L185.424 146.359C188.278 148.886 185.609 153.508 181.994 152.3L137.917 137.567C133.315 136.029 128.712 139.892 129.428 144.69L136.282 190.656C136.844 194.426 131.83 196.252 129.837 193.003L105.541 153.385C103.005 149.249 96.9953 149.249 94.459 153.385L70.1631 193.003C68.1703 196.252 63.1556 194.426 63.7178 190.656L70.5723 144.69C71.2879 139.892 66.6845 136.029 62.083 137.567L18.0059 152.3C14.3908 153.508 11.7223 148.886 14.5762 146.359L49.374 115.554C53.0067 112.338 51.9628 106.419 47.4492 104.64L4.21387 87.5928C0.668133 86.1946 1.5951 80.9389 5.40527 80.8379L51.8633 79.6064C56.7133 79.4779 59.718 74.2733 57.4043 70.0088L35.2422 29.1592C33.4245 25.8089 37.5124 22.3792 40.4961 24.751L76.877 53.6699C80.6749 56.6887 86.3211 54.6337 87.29 49.8799L96.5703 4.34082Z" stroke="#9B1C31" stroke-width="3"/>
</svg>
