<svg width="174" height="171" viewBox="0 0 174 171" fill="none" xmlns="http://www.w3.org/2000/svg">
<path d="M82.1007 4.04159C83.188 -1.29387 90.812 -1.29389 91.8993 4.04158L99.481 41.2463C100.226 44.9032 104.57 46.4843 107.492 44.1619L137.214 20.5349C141.477 17.1466 147.317 22.0472 144.721 26.8333L126.614 60.2072C124.834 63.4876 127.145 67.491 130.876 67.5899L168.832 68.5959C174.275 68.7402 175.599 76.2484 170.534 78.2456L135.211 92.1727C131.739 93.5417 130.936 98.0941 133.73 100.568L162.16 125.736C166.237 129.346 162.425 135.948 157.26 134.222L121.249 122.186C117.71 121.003 114.169 123.974 114.719 127.665L120.319 165.219C121.122 170.605 113.958 173.213 111.112 168.571L91.2624 136.203C89.3113 133.021 84.6887 133.021 82.7376 136.203L62.8884 168.571C60.0418 173.213 52.8776 170.605 53.6807 165.219L59.2809 127.665C59.8314 123.974 56.2902 121.003 52.7506 122.186L16.7395 134.222C11.5753 135.948 7.76322 129.346 11.8402 125.736L40.2696 100.568C43.064 98.0941 42.2612 93.5417 38.7893 92.1727L3.46636 78.2457C-1.59924 76.2484 -0.275349 68.7402 5.16786 68.5959L43.1239 67.5899C46.8547 67.491 49.166 63.4876 47.3862 60.2072L29.2795 26.8333C26.6828 22.0472 32.5232 17.1466 36.7857 20.5349L66.5083 44.1619C69.4298 46.4843 73.7737 44.9032 74.519 41.2463L82.1007 4.04159Z" fill="#244D84"/>
</svg>
