<svg width="110" height="109" viewBox="0 0 110 109" fill="none" xmlns="http://www.w3.org/2000/svg">
<path d="M51.9025 3.19985C52.5899 -0.173395 57.4101 -0.173402 58.0975 3.19985L62.8542 26.5417C63.3254 28.8537 66.0717 29.8533 67.9188 28.385L86.5665 13.5617C89.2613 11.4195 92.9538 14.5178 91.3121 17.5438L79.9521 38.4822C78.8269 40.5562 80.2882 43.0872 82.6469 43.1497L106.46 43.7809C109.901 43.8721 110.739 48.6191 107.536 49.8818L85.3746 58.6195C83.1795 59.485 82.672 62.3632 84.4388 63.9272L102.275 79.7176C104.853 81.9995 102.443 86.1739 99.1775 85.0826L76.5845 77.5311C74.3467 76.7831 72.1078 78.6617 72.4559 80.9955L75.9694 104.557C76.4772 107.961 71.9477 109.61 70.148 106.675L57.6948 86.3681C56.4613 84.3566 53.5387 84.3566 52.3052 86.3681L39.852 106.675C38.0523 109.61 33.5228 107.961 34.0306 104.557L37.5441 80.9955C37.8921 78.6617 35.6533 76.7831 33.4155 77.5311L10.8225 85.0826C7.55745 86.1739 5.14737 81.9995 7.72498 79.7176L25.5612 63.9272C27.328 62.3632 26.8205 59.485 24.6254 58.6195L2.46413 49.8818C-0.738503 48.6191 0.0985012 43.8721 3.53987 43.7809L27.3531 43.1497C29.7118 43.0872 31.1731 40.5562 30.0479 38.4822L18.6879 17.5438C17.0462 14.5179 20.7387 11.4195 23.4335 13.5617L42.0812 28.385C43.9283 29.8533 46.6746 28.8537 47.1458 26.5417L51.9025 3.19985Z" fill="#283055"/>
</svg>
